<svg data-v-fde0c5aa="" xmlns="http://www.w3.org/2000/svg" viewBox="0 0 300 300" class="font"><!----><defs data-v-fde0c5aa=""><!----></defs><rect data-v-fde0c5aa="" fill="#EDE3FB" x="0" y="0" width="300px" height="300px" class="logo-background-square"></rect><defs data-v-fde0c5aa=""><linearGradient data-v-fde0c5aa="" gradientTransform="rotate(25)" id="81fdac1d-eb93-4894-a611-d31a00634eb1" x1="0%" y1="0%" x2="100%" y2="0%"><stop data-v-fde0c5aa="" offset="0%" stop-color="#0076DD" stop-opacity="1"></stop><stop data-v-fde0c5aa="" offset="100%" stop-color="#E600E9" stop-opacity="1"></stop></linearGradient></defs><g data-v-fde0c5aa="" id="a6f0b4ff-7d5a-4b74-91ce-d761f8461661" fill="url(#81fdac1d-eb93-4894-a611-d31a00634eb1)" transform="matrix(2.9858848953417514,0,0,2.9858848953417514,39.16395222574486,134.53311675469084)"><path d="M11.41 0.57L8.71 8.82L6.73 1.97L5.94 1.97L3.96 8.78L1.26 0.57L0.28 0.57L3.54 10.22L4.41 10.22L6.33 3.53L8.26 10.22L9.13 10.22L12.39 0.57ZM16.13 10.36C17.99 10.36 19.56 9.00 19.56 6.93C19.56 4.86 17.99 3.54 16.13 3.54C14.27 3.54 12.71 4.86 12.71 6.93C12.71 9.00 14.27 10.36 16.13 10.36ZM16.13 9.51C14.74 9.51 13.61 8.48 13.61 6.93C13.61 5.39 14.74 4.40 16.13 4.40C17.50 4.40 18.66 5.39 18.66 6.93C18.66 8.48 17.50 9.51 16.13 9.51ZM26.75 10.22L23.13 6.52L25.93 3.68L24.68 3.68L22.23 6.19L22.23 0L21.34 0L21.34 10.22L22.23 10.22L22.23 6.86L25.54 10.22ZM28.22 1.90C28.62 1.90 28.92 1.64 28.92 1.27C28.92 0.90 28.62 0.63 28.22 0.63C27.86 0.63 27.54 0.90 27.54 1.27C27.54 1.64 27.86 1.90 28.22 1.90ZM27.78 10.22L28.67 10.22L28.67 3.68L27.78 3.68ZM34.08 3.54C33.26 3.54 32.20 3.92 31.81 4.86L31.81 3.68L30.91 3.68L30.91 10.22L31.81 10.22L31.81 6.59C31.84 5.01 32.94 4.42 33.99 4.42C35.04 4.42 35.84 5.19 35.84 6.45L35.84 10.22L36.74 10.22L36.74 6.41C36.74 4.61 35.66 3.54 34.08 3.54ZM46.65 0.57L42.85 0.57L42.85 10.22L43.78 10.22L43.78 6.45L46.61 6.45C48.62 6.45 49.41 5.01 49.41 3.51C49.41 2.03 48.62 0.57 46.65 0.57ZM46.56 5.59L43.78 5.59L43.78 1.44L46.63 1.44C47.96 1.44 48.48 2.48 48.48 3.51C48.48 4.56 47.95 5.59 46.56 5.59ZM51.49 1.90C51.88 1.90 52.19 1.64 52.19 1.27C52.19 0.90 51.88 0.63 51.49 0.63C51.13 0.63 50.81 0.90 50.81 1.27C50.81 1.64 51.13 1.90 51.49 1.90ZM51.04 10.22L51.94 10.22L51.94 3.68L51.04 3.68ZM59.21 3.68L53.76 3.68L53.76 4.54L57.89 4.54L53.63 9.52L53.63 10.22L59.21 10.22L59.21 9.37L54.91 9.37L59.21 4.40ZM65.98 3.68L60.54 3.68L60.54 4.54L64.67 4.54L60.41 9.52L60.41 10.22L65.98 10.22L65.98 9.37L61.68 9.37L65.98 4.40ZM73.07 3.68L73.07 4.94C72.58 4.06 71.57 3.54 70.46 3.54C68.63 3.54 67.14 4.96 67.14 6.94C67.14 8.93 68.64 10.36 70.46 10.36C71.55 10.36 72.58 9.84 73.07 8.95L73.07 10.22L73.96 10.22L73.96 3.68ZM70.53 9.51C69.16 9.51 68.04 8.39 68.04 6.93C68.04 5.49 69.16 4.40 70.53 4.40C71.83 4.40 73.07 5.39 73.07 6.97C73.07 8.48 71.89 9.51 70.53 9.51Z"></path></g><!----><!----></svg>